<svg width="64" height="64" viewBox="0 0 64 64" fill="none" xmlns="http://www.w3.org/2000/svg"> <path d="M32 0C49.6731 0 64 14.3269 64 32C64 49.6731 49.6731 64 32 64C14.3269 64 0 49.6731 0 32C0 14.3269 14.3269 0 32 0Z" fill="#2563EB" /> <g clip-path="url(#clip0_138_734)"> <path d="M41.1078 28C42.7109 28 45.5 29.3594 45.5 31C45.5 32.6875 42.7109 34 41.1078 34H35.6422L30.9313 42.2453C30.6641 42.7141 30.1672 43 29.6281 43H26.9937C26.4969 43 26.1359 42.5219 26.2719 42.0438L28.5688 34H23.75L21.725 36.7C21.5844 36.8875 21.3594 37 21.125 37H19.1562C18.7906 37 18.5 36.7047 18.5 36.3438C18.5 36.2828 18.5094 36.2219 18.5234 36.1609L20 31L18.5234 25.8391C18.5047 25.7781 18.5 25.7172 18.5 25.6562C18.5 25.2906 18.7953 25 19.1562 25H21.125C21.3594 25 21.5844 25.1125 21.725 25.3L23.75 28H28.5734L26.2766 19.9562C26.1359 19.4781 26.4969 19 26.9937 19H29.6281C30.1672 19 30.6641 19.2906 30.9313 19.7547L35.6422 28H41.1078Z" fill="white" /> </g> <defs> <clipPath id="clip0_138_734"> <path d="M18.5 19H45.5V43H18.5V19Z" fill="white" /> </clipPath> </defs> </svg>